<?xml version="1.0" encoding="iso-8859-1"?>
<!-- Generator: Adobe Illustrator 18.0.0, SVG Export Plug-In . SVG Version: 6.00 Build 0)  -->
<!DOCTYPE svg PUBLIC "-//W3C//DTD SVG 1.1//EN" "http://www.w3.org/Graphics/SVG/1.1/DTD/svg11.dtd">
<svg version="1.1" id="Capa_1" xmlns="http://www.w3.org/2000/svg" xmlns:xlink="http://www.w3.org/1999/xlink" x="0px" y="0px"
	 viewBox="0 0 297 297" style="enable-background:new 0 0 297 297;" xml:space="preserve">
<g>
	<g>
		<path style="fill:#AEC1CF;" d="M6,49.5c-3.314,0-6,2.686-6,6v21c0,3.314,2.686,6,6,6h25.833v-33H6z"/>
	</g>
	<g>
		<rect x="31.834" y="49.5" style="fill:#E04332;" width="33.667" height="33"/>
	</g>
	<g>
		<path style="fill:#AEC1CF;" d="M231.518,49.5H65.5v33h166.052C231.782,71.546,231.58,60.621,231.518,49.5z"/>
	</g>
	<g>
		<path style="fill:#E04332;" d="M264.5,49.5h-32.982c0.062,11.121,0.264,22.046,0.034,33H264.5V49.5z"/>
	</g>
	<g>
		<path style="fill:#AEC1CF;" d="M291,49.5h-26.5v33H291c3.314,0,6-2.687,6-6v-21C297,52.186,294.314,49.5,291,49.5z"/>
	</g>
	<g style="opacity:0.74;">
		<path style="fill:#AEC1CF;" d="M0,60v16.5c0,3.314,2.686,6,6,6h25.833V66H6C2.686,66,0,63.313,0,60z"/>
	</g>
	<g style="opacity:0.74;">
		<rect x="31.834" y="66" style="fill:#E04332;" width="33.667" height="16.5"/>
	</g>
	<g style="opacity:0.74;">
		<path style="fill:#AEC1CF;" d="M231.552,66H65.5v16.5h166.052c0.148-7.037,0.114-14.068,0.057-21.141
			C231.592,62.906,231.585,64.453,231.552,66z"/>
	</g>
	<g>
		<g>
			<path style="fill:#E04332;" d="M231.644,49.5h-0.126c0.022,3.977,0.059,7.923,0.091,11.859
				C231.652,57.41,231.665,53.46,231.644,49.5z"/>
		</g>
		<g>
			<path style="fill:#E04332;" d="M231.552,82.5H264.5V66h-32.856C231.674,71.512,231.667,77.002,231.552,82.5z"/>
		</g>
	</g>
	<g style="opacity:0.74;">
		<path style="fill:#AEC1CF;" d="M291,66h-26.5v16.5H291c3.314,0,6-2.687,6-6V60C297,63.313,294.314,66,291,66z"/>
	</g>
	<g>
		<rect x="16.5" y="82.5" style="fill:#6A7C84;" width="16.5" height="165"/>
	</g>
	<g>
		<rect x="264" y="82.5" style="fill:#6A7C84;" width="16.5" height="165"/>
	</g>
	<g>
		<rect x="33" y="214.5" style="fill:#345065;" width="231" height="16.5"/>
	</g>
</g>
<g>
</g>
<g>
</g>
<g>
</g>
<g>
</g>
<g>
</g>
<g>
</g>
<g>
</g>
<g>
</g>
<g>
</g>
<g>
</g>
<g>
</g>
<g>
</g>
<g>
</g>
<g>
</g>
<g>
</g>
</svg>
